HIERARCHY
ROOT hip
{
	OFFSET 0.000000 0.000000 0.000000 
	CHANNELS 6 Xposition Yposition Zposition Xrotation Zrotation Yrotation
	JOINT abdomen
	{
		OFFSET 0.000000 3.402643 0.000000 
		CHANNELS 3 Xrotation Zrotation Yrotation
		JOINT chest
		{
			OFFSET 0.000000 8.438565 -0.680529 
			CHANNELS 3 Xrotation Zrotation Yrotation
			JOINT neck
			{
				OFFSET 0.000000 10.207942 -0.272212 
				CHANNELS 3 Xrotation Zrotation Yrotation
				JOINT head
				{
					OFFSET 0.000000 3.130431 0.000000 
					CHANNELS 3 Xrotation Zrotation Yrotation
					End Site
					{
						OFFSET 0.000000 3.130435 0.000000 
					}
				}
			}
			JOINT lCollar
			{
				OFFSET 3.470700 6.669187 -0.816635 
				CHANNELS 3 Yrotation Zrotation Xrotation
				JOINT lShldr
				{
					OFFSET 3.198488 0.000000 0.000000 
					CHANNELS 3 Zrotation Yrotation Xrotation
					JOINT lForeArm
					{
						OFFSET 10.139888 0.000000 0.000000 
						CHANNELS 3 Yrotation Zrotation Xrotation
						JOINT lHand
						{
							OFFSET 8.370511 0.000000 0.000000 
							CHANNELS 3 Zrotation Yrotation Xrotation
							End Site
							{
								OFFSET 4.083176 0.000000 0.000000 
							}
						}
					}
				}
			}
			JOINT rCollar
			{
				OFFSET -3.470700 6.669187 -0.816635 
				CHANNELS 3 Yrotation Zrotation Xrotation
				JOINT rShldr
				{
					OFFSET -3.198488 0.000000 0.000000 
					CHANNELS 3 Zrotation Yrotation Xrotation
					JOINT rForeArm
					{
						OFFSET -10.139888 0.000000 0.000000 
						CHANNELS 3 Yrotation Zrotation Xrotation
						JOINT rHand
						{
							OFFSET -8.370511 0.000000 0.000000 
							CHANNELS 3 Zrotation Yrotation Xrotation
							End Site
							{
								OFFSET -4.083176 0.000000 0.000000 
							}
						}
					}
				}
			}
		}
	}
	JOINT lThigh
	{
		OFFSET 5.308129 -1.633274 1.361059 
		CHANNELS 3 Xrotation Zrotation Yrotation
		JOINT lShin
		{
			OFFSET -2.041588 -20.007561 0.000000 
			CHANNELS 3 Xrotation Zrotation Yrotation
			JOINT lFoot
			{
				OFFSET 0.000000 -19.190928 -1.224953 
				CHANNELS 3 Xrotation Yrotation Zrotation
				End Site
				{
					OFFSET 0.000000 -2.449906 4.627600 
				}
			}
		}
	}
	JOINT rThigh
	{
		OFFSET -5.308129 -1.633274 1.361059 
		CHANNELS 3 Xrotation Zrotation Yrotation
		JOINT rShin
		{
			OFFSET 2.041588 -20.007561 0.000000 
			CHANNELS 3 Xrotation Zrotation Yrotation
			JOINT rFoot
			{
				OFFSET 0.000000 -19.190928 -1.224953 
				CHANNELS 3 Xrotation Yrotation Zrotation
				End Site
				{
					OFFSET 0.000000 -2.449906 4.627600 
				}
			}
		}
	}
}
MOTION
Frames: 15
Frame Time: 0.033333
5.445757 45.140430 88.662254 3.339844 -0.537109 8.212812 55.943890 -13.903702 -1.299603 -34.921875 5.791016 -0.117188 51.063168 8.107644 2.471410 -85.000000 -2.753906 -6.152813 2.000000 -2.000000 0.000000 -99.140625 32.373047 -55.712887 -56.531395 -0.783709 -1.916441 14.624898 54.125702 -0.373049 -2.000000 2.000000 0.000000 67.128906 -2.392578 34.648033 101.131882 -0.732217 -3.099842 -35.237312 -30.656027 20.384678 -37.417164 3.319504 4.874200 49.587803 -3.724034 -3.943018 -22.182587 2.918739 4.994371 26.365751 -3.369754 -21.714346 25.026848 4.671596 2.289753 14.357855 -1.615554 -21.652225 
5.651803 45.534332 92.170929 4.042969 -0.878906 10.634616 57.284115 -13.615104 -2.735061 -35.615234 6.669922 -0.283203 51.063168 8.107644 2.471410 -84.853516 -1.601562 -6.230469 2.000000 -2.000000 0.000000 -92.255859 28.232422 -47.026630 -61.636967 -1.006978 -2.558879 14.948202 53.925529 -3.397958 -2.000000 2.000000 0.000000 67.392578 -8.017578 33.720707 96.043655 -0.333622 -3.057230 -37.840664 -31.334951 23.339800 -35.663761 3.007798 4.453123 54.182327 -3.400619 -4.227238 -23.842966 1.685765 5.564601 20.376020 -4.082744 -21.588631 43.845661 3.567656 3.730845 1.649151 -7.737040 -18.679178 
5.801298 46.802711 96.106712 4.384766 -1.240234 14.472657 58.536121 -13.042482 -4.035841 -36.328125 7.548828 -0.468750 51.063168 8.107644 2.471410 -83.261719 0.009766 -6.708985 2.000000 -2.000000 0.000000 -85.341797 18.837893 -35.537109 -67.268242 -0.961493 -2.786591 15.617622 51.806519 -1.993174 -2.000000 2.000000 0.000000 68.916016 -15.996095 29.414063 86.220207 0.457764 -3.040787 -40.080753 -33.941292 27.373348 -31.013006 3.124614 2.891308 53.996902 -3.685580 -4.533543 -22.957712 -0.569341 6.700686 11.945939 -4.052133 -21.746365 53.324520 2.965864 4.073612 14.203421 -11.048268 -8.602088 
6.219779 47.543247 100.613449 4.384766 -1.582031 18.837889 59.250690 -12.139174 -5.295405 -37.041016 8.427733 -0.496616 51.063168 8.107644 2.471410 -81.191406 1.484375 -6.962892 2.000000 -2.000000 0.000000 -80.527344 5.410157 -23.700251 -73.058624 -0.755063 -2.769231 15.866560 48.752945 0.418482 -2.000000 2.000000 0.000000 71.396484 -24.316408 23.951057 75.664711 0.722988 -2.722323 -41.789665 -37.156780 30.700081 -25.053082 3.143285 0.031527 52.248478 -3.570033 -4.377779 -25.853144 -2.733127 6.049060 3.677547 -3.981059 -20.999636 59.105827 2.595279 3.719833 25.157412 -10.175295 0.256412 
6.877841 48.110462 105.030846 4.218750 -1.767578 22.343449 59.485409 -9.571294 -7.622011 -37.226566 10.166015 -0.410156 51.063168 8.107644 2.471410 -78.691406 1.884766 -4.785157 2.000000 -2.000000 0.000000 -78.564453 -8.232422 -13.623047 -79.207130 -0.346862 -2.646178 16.087013 45.640415 2.982987 -2.000000 2.000000 0.000000 72.343750 -32.138668 21.000664 69.175789 0.977164 -2.551003 -43.053074 -39.173687 32.382191 -18.937559 3.182300 -3.590641 49.751709 -3.394390 -4.082755 -27.173124 -3.346341 5.199219 -4.577708 -6.094902 -21.695871 65.017906 1.972542 4.338878 23.130898 -9.034270 0.229532 
7.648391 48.386196 109.744812 3.867188 -1.943359 23.925451 58.851772 -5.414875 -10.538950 -36.894535 12.783204 0.361329 51.063168 8.107644 2.471410 -76.494141 0.615234 0.048828 2.000000 -2.000000 0.000000 -78.300781 -18.271484 -7.343750 -85.369499 -0.465258 -3.001163 17.217846 42.357925 6.430532 -2.000000 2.000000 0.000000 69.550781 -39.726563 22.695313 68.472351 1.015595 -2.538995 -42.263382 -39.561882 31.119217 -10.716437 4.704947 -5.277947 44.856316 -3.752458 -3.786534 -29.280365 -4.182815 4.609418 -12.261271 -8.909000 -21.186842 69.755341 1.562497 4.481629 16.642370 -7.220154 -1.654555 
8.138141 48.417713 113.997437 3.496094 -1.767578 23.603214 57.498863 -1.435231 -13.286079 -36.376957 15.224609 1.064454 51.063168 8.107644 2.471410 -74.960938 -1.767578 5.458684 2.000000 -2.000000 0.000000 -76.582031 -24.648438 -2.050781 -92.038712 -0.044345 -2.996247 19.708351 39.952744 10.101784 -2.000000 2.000000 0.000000 65.830078 -47.441406 25.725229 70.935524 0.942130 -2.621483 -39.678284 -39.674633 27.004259 -3.346838 6.499703 -3.750760 40.974903 -3.879256 -3.509078 -26.634676 -3.894181 8.806835 -17.271290 -10.268573 -19.959179 68.859024 1.688784 4.421024 10.484513 -4.908269 -3.966965 
8.219851 48.622543 117.860077 2.978516 -1.425781 22.226316 55.866394 1.022984 -14.585707 -35.849609 16.455078 1.591796 51.063168 8.107644 2.471410 -73.994141 -4.160156 9.013672 2.000000 -2.000000 0.000000 -73.320313 -29.648441 4.340871 -99.252335 -0.106617 -3.227326 22.442780 37.461353 14.198167 -2.000000 2.000000 0.000000 63.730465 -54.892582 27.031250 74.443932 0.820481 -2.716684 -37.485371 -38.985901 22.801136 3.485771 8.767027 -0.083348 37.490898 -4.121664 -3.250409 -19.390137 -3.987859 13.683238 -18.406925 -9.881547 -18.190367 60.275963 2.372919 4.162172 5.400980 -1.757510 -4.809792 
8.096519 50.655087 121.109444 2.460938 -1.240234 20.322266 54.336769 1.979012 -14.529375 -35.478519 16.289064 2.070313 51.063168 8.107644 2.471410 -73.330078 -5.869140 10.517579 2.000000 -2.000000 0.000000 -70.507813 -33.349609 12.533693 -105.733551 0.513787 -3.155654 24.819733 34.958256 17.429533 -2.000000 2.000000 0.000000 65.429688 -61.406250 23.907438 77.424706 0.717761 -2.800851 -36.476135 -38.098789 20.529057 11.080844 11.082378 3.212959 32.060551 -4.750350 -2.778882 -7.002285 -2.502349 18.327459 -17.563894 -8.902277 -15.248584 46.946468 3.505435 3.623999 0.542637 0.078834 -4.901617 
7.894117 51.348358 123.343941 1.757813 -0.878906 17.890627 52.591011 2.433902 -13.606277 -34.921875 15.419922 2.480469 51.063168 8.107644 2.471410 -72.470703 -7.480468 11.337892 2.000000 -2.000000 0.000000 -69.501953 -35.078125 20.205078 -110.644608 1.051938 -2.815390 26.533138 32.393665 18.993313 -2.000000 2.000000 0.000000 70.585938 -65.742188 15.400392 79.007591 0.660961 -2.833472 -36.959908 -36.542316 20.477253 17.426371 10.925992 6.358080 25.011200 -4.875361 -2.019190 13.041894 2.135213 21.854883 -15.757539 -7.643101 -13.570217 33.580261 4.208440 2.891621 -4.005608 1.900158 -4.781303 
8.623938 51.009605 128.029327 1.054688 -0.527342 15.253865 50.818657 2.561875 -12.416249 -34.365234 14.375001 2.724610 51.063168 8.107644 2.471410 -71.396484 -8.789062 11.601563 2.000000 -2.000000 0.000000 -71.376953 -32.021484 26.781929 -113.304413 0.469721 -3.241107 27.807510 28.813068 17.583727 -2.000000 2.000000 0.000000 77.841797 -66.875000 4.335938 80.063110 0.643157 -2.863836 -38.586983 -33.913864 21.491648 36.702911 8.603725 7.713704 -3.457474 -5.132361 0.964964 32.097576 4.117255 22.724932 -14.380844 -6.745162 -11.987639 24.950851 4.628607 2.099761 -7.565612 2.190785 -4.603151 
8.536593 50.631458 129.659805 0.351563 -0.175781 12.978498 48.968418 2.134603 -10.908174 -34.003910 12.978518 3.095704 51.063168 8.107644 2.471410 -70.117195 -9.814452 11.337892 2.000000 -2.000000 0.000000 -73.525398 -24.472654 31.679688 -113.649696 0.657395 -3.379076 28.328711 25.319977 14.371360 -2.000000 2.000000 0.000000 82.519531 -63.671879 -2.469690 81.821808 0.537609 -2.899276 -39.195820 -32.450882 20.604555 45.368389 7.509892 6.461206 -14.811720 -5.112738 1.315255 43.753109 7.465460 20.997242 -14.342429 -5.925705 -10.990916 23.548340 4.774306 1.508248 -9.245894 1.666657 -3.853431 
8.473771 50.505409 131.034515 -0.537109 0.166016 10.888683 47.586784 1.374010 -9.211483 -33.466797 11.923828 3.293034 51.063168 8.107644 2.471410 -68.037109 -10.449219 11.601563 2.000000 -2.000000 0.000000 -74.003906 -15.146484 31.315805 -111.172859 0.738022 -3.168624 29.434574 23.905426 12.477269 -2.000000 2.000000 0.000000 84.326172 -55.517578 -4.199218 83.593697 0.653879 -3.049000 -39.070812 -31.028757 19.061934 48.653549 6.885124 5.057784 -14.822525 -5.315505 1.160269 50.518330 9.945983 20.595106 -15.041178 -4.985883 -11.935444 26.354408 4.569727 2.367234 -9.642638 0.829496 -3.594992 
7.723319 50.615696 132.188232 -1.240234 0.498047 9.111400 46.708042 0.336554 -7.732925 -32.939453 11.396484 3.603516 51.063168 8.107644 2.471410 -65.712898 -10.595701 12.539063 2.000000 -2.000000 0.000000 -74.423828 -5.292969 25.448317 -105.547073 0.690965 -3.136569 29.476126 25.167036 11.906175 -2.000000 2.000000 0.000000 83.759766 -43.593750 -2.392579 85.342628 0.558077 -3.083971 -38.366859 -29.917469 16.027008 38.220879 7.089984 4.517164 6.485896 -5.628970 -0.629645 49.178120 13.302366 15.220870 -14.504729 -4.429773 -12.170429 30.064274 4.482051 2.183508 -8.964846 -0.105358 -2.041098 
7.238299 50.938698 134.332474 -2.128906 0.869141 7.343750 46.114311 -1.477634 -6.275302 -32.402348 11.035156 3.730469 51.063168 8.107644 2.471410 -64.482422 -10.761718 12.138674 2.000000 -2.000000 0.000000 -76.269531 5.322266 15.712892 -97.669464 -0.173174 -3.194142 30.062002 28.105719 12.305337 -2.000000 2.000000 0.000000 82.597656 -31.572266 0.527344 87.445625 0.369850 -3.212163 -37.839233 -29.037920 13.559947 19.821608 8.144530 3.974543 41.224365 -4.193399 -3.098116 38.356133 15.791081 4.309222 -11.634824 -3.541571 -12.465939 30.763920 4.461967 2.070960 -9.642089 -0.498546 -0.691920 
